<?xml version="1.0" encoding="UTF-8"?>
<!DOCTYPE svg PUBLIC "-//W3C//DTD SVG 1.1//EN" "http://www.w3.org/Graphics/SVG/1.1/DTD/svg11.dtd">
<svg xmlns="http://www.w3.org/2000/svg" version="1.1" width="874px" height="874px" style="shape-rendering:geometricPrecision; text-rendering:geometricPrecision; image-rendering:optimizeQuality; fill-rule:evenodd; clip-rule:evenodd" xmlns:xlink="http://www.w3.org/1999/xlink">
<g><path style="opacity:1" fill="#FFA588" d="M 444.5,26.5 C 450.854,27.9626 457.021,29.9626 463,32.5C 468.092,44.787 467.426,56.787 461,68.5C 454.719,77.7817 448.052,86.7817 441,95.5C 431.032,114.105 422.699,133.438 416,153.5C 408.179,177.119 400.512,200.786 393,224.5C 369.824,310.872 346.49,397.205 323,483.5C 318.034,505.293 314.368,527.293 312,549.5C 303.246,562.491 293.412,574.657 282.5,586C 276.112,591.352 268.779,593.685 260.5,593C 255.219,587.611 251.053,581.444 248,574.5C 234.528,547.222 221.862,519.555 210,491.5C 192.667,443.5 175.333,395.5 158,347.5C 147.529,321.087 136.862,294.753 126,268.5C 115.704,246.897 103.037,226.897 88,208.5C 88.1907,200.869 88.524,193.203 89,185.5C 93.8547,174.309 100.688,164.475 109.5,156C 124.063,145.612 136.563,147.778 147,162.5C 165.134,189.432 180.134,218.099 192,248.5C 219.452,318.856 246.119,389.522 272,460.5C 299.648,376.888 327.315,293.222 355,209.5C 373.39,155.725 393.724,102.725 416,50.5C 424.762,41.5669 434.262,33.5669 444.5,26.5 Z"/></g>
<g><path style="opacity:1" fill="#FFA588" d="M 486.5,135.5 C 492.337,135.358 497.504,137.025 502,140.5C 503.763,147.746 505.097,155.079 506,162.5C 509.636,252.221 514.303,341.888 520,431.5C 521.119,452.127 523.786,472.46 528,492.5C 598.924,452.287 670.091,412.453 741.5,373C 776.167,351 810.833,329 845.5,307C 852.244,305.286 856.41,307.786 858,314.5C 859.652,322.881 857.985,330.547 853,337.5C 844.714,348.787 836.048,359.787 827,370.5C 821.136,376.699 814.969,382.532 808.5,388C 717.073,441.101 625.907,494.601 535,548.5C 538.51,573.048 544.51,597.048 553,620.5C 556.252,624.366 560.419,626.533 565.5,627C 567.81,628.637 569.31,630.804 570,633.5C 571.691,650.137 573.025,666.804 574,683.5C 577.168,693.669 580.334,703.836 583.5,714C 575.523,738.956 563.856,761.956 548.5,783C 547.24,784.113 546.073,784.28 545,783.5C 521.404,715.709 502.07,646.709 487,576.5C 437.914,603.627 388.747,630.627 339.5,657.5C 319.667,704.504 301.501,752.171 285,800.5C 281.405,811.593 274.238,819.259 263.5,823.5C 257.739,810.31 253.739,796.476 251.5,782C 254.197,771.243 257.697,760.743 262,750.5C 267.059,743.772 271.726,736.772 276,729.5C 280.851,714.964 284.851,700.298 288,685.5C 238.5,717 189,748.5 139.5,780C 118.034,799.138 95.7011,817.138 72.5,834C 57.4284,842.62 41.595,849.453 25,854.5C 21.4687,851.975 19.1354,848.641 18,844.5C 17.4427,833.388 19.4427,822.721 24,812.5C 29.3621,796.924 37.8621,783.424 49.5,772C 140.999,717.085 232.333,661.918 323.5,606.5C 347.667,546.167 371.833,485.833 396,425.5C 413.284,380.93 428.284,335.597 441,289.5C 451.597,243.443 463.597,197.777 477,152.5C 480.191,146.779 483.358,141.112 486.5,135.5 Z M 468.5,303.5 C 471.256,354.314 473.423,405.314 475,456.5C 476.449,475.671 477.949,494.837 479.5,514C 479.167,516.167 478.833,518.333 478.5,520.5C 442.614,541.537 406.114,561.537 369,580.5C 392.43,522.611 415.097,464.277 437,405.5C 448.743,371.853 459.243,337.853 468.5,303.5 Z"/></g>
</svg>
