<svg xmlns="http://www.w3.org/2000/svg" xmlns:xlink="http://www.w3.org/1999/xlink" viewBox="0 0 69 69"><defs><style>.cls-1,.cls-2{fill:none;}.cls-2{clip-rule:evenodd;}.cls-3{clip-path:url(#clip-path);}.cls-4{clip-path:url(#clip-path-2);}.cls-5{fill:red;}.cls-6{clip-path:url(#clip-path-3);}.cls-7{fill:#fff;}.cls-8{clip-path:url(#clip-path-5);}.cls-9{clip-path:url(#clip-path-7);}</style><clipPath id="clip-path" transform="translate(5 5)"><circle class="cls-1" cx="29.5" cy="29.5" r="29.5"/></clipPath><clipPath id="clip-path-2" transform="translate(5 5)"><rect class="cls-1" x="-159" y="-15" width="375" height="667"/></clipPath><clipPath id="clip-path-3" transform="translate(5 5)"><path class="cls-2" d="M42.61,26.55,31,15.1c-1.49-1.45-.48-3.86-.48-3.86L30.29,11l-2.42,3.32a4.81,4.81,0,0,0,.5,6.12L39.94,31.89c1.53,1.46.52,3.87.52,3.87l.23.24,2.42-3.32a4.78,4.78,0,0,0-.5-6.15Z"/></clipPath><clipPath id="clip-path-5" transform="translate(5 5)"><path class="cls-2" d="M37.57,33.43,25.27,22c-1.63-1.48-.55-3.88-.55-3.88l-.26-.1-2.53,3.21a4.67,4.67,0,0,0,.51,6.17L34.69,38.9c1.6,1.47.54,3.86.54,3.86l.25.24L38,39.68a4.66,4.66,0,0,0-.46-6.2Z"/></clipPath><clipPath id="clip-path-7" transform="translate(5 5)"><path class="cls-2" d="M31.49,39.54,19.94,28.1c-1.5-1.46-.51-3.86-.51-3.86L19.25,24l-2.37,3.32a4.83,4.83,0,0,0,.5,6.15L28.94,44.91c1.53,1.45.53,3.85.53,3.85l.23.24,2.42-3.32a4.83,4.83,0,0,0-.5-6.15Z"/></clipPath></defs><g id="Layer_2" data-name="Layer 2"><g id="Layer_1-2" data-name="Layer 1"><g class="cls-3"><g class="cls-4"><rect class="cls-5" width="69" height="69"/></g></g><g class="cls-6"><g class="cls-4"><rect class="cls-7" x="27" y="11" width="27" height="35"/></g></g><g class="cls-8"><g class="cls-4"><rect class="cls-7" x="21" y="18" width="28" height="35"/></g></g><g class="cls-9"><g class="cls-4"><rect class="cls-7" x="16" y="24" width="27" height="35"/></g></g></g></g></svg>