<?xml version="1.0" encoding="UTF-8"?>
<!DOCTYPE svg PUBLIC "-//W3C//DTD SVG 1.1//EN" "http://www.w3.org/Graphics/SVG/1.1/DTD/svg11.dtd">
<svg xmlns="http://www.w3.org/2000/svg" version="1.1" width="512px" height="499px" style="shape-rendering:geometricPrecision; text-rendering:geometricPrecision; image-rendering:optimizeQuality; fill-rule:evenodd; clip-rule:evenodd" xmlns:xlink="http://www.w3.org/1999/xlink">
<g><path style="opacity:0.999" fill="#001e36" d="M 76.5,-0.5 C 195.833,-0.5 315.167,-0.5 434.5,-0.5C 476.491,8.82442 502.158,34.4911 511.5,76.5C 511.5,191.5 511.5,306.5 511.5,421.5C 502.167,463.5 476.5,489.167 434.5,498.5C 315.167,498.5 195.833,498.5 76.5,498.5C 34.5,489.167 8.83333,463.5 -0.5,421.5C -0.5,306.5 -0.5,191.5 -0.5,76.5C 8.82442,34.5089 34.4911,8.84224 76.5,-0.5 Z"/></g>
<g><path style="opacity:1" fill="#30a7fd" d="M 194.5,280.5 C 183.167,280.5 171.833,280.5 160.5,280.5C 160.5,303.833 160.5,327.167 160.5,350.5C 160.389,351.117 160.056,351.617 159.5,352C 144.592,352.823 129.759,352.657 115,351.5C 114.333,277.167 114.333,202.833 115,128.5C 142.086,126.876 169.252,126.376 196.5,127C 219.149,127.988 238.982,135.822 256,150.5C 269.495,165.144 275.995,182.478 275.5,202.5C 275.898,239.594 258.565,264.094 223.5,276C 213.926,278.151 204.259,279.651 194.5,280.5 Z"/></g>
<g><path style="opacity:1" fill="#001e36" d="M 161.5,168.5 C 174.871,168.168 188.204,168.668 201.5,170C 222.23,175.621 231.396,189.121 229,210.5C 227.811,220.385 222.978,227.885 214.5,233C 207.779,236.129 200.779,238.462 193.5,240C 182.839,240.5 172.172,240.667 161.5,240.5C 161.5,216.5 161.5,192.5 161.5,168.5 Z"/></g>
<g><path style="opacity:1" fill="#30a6fd" d="M 350.5,179.5 C 371.259,178.109 391.592,180.276 411.5,186C 412.333,186.833 413.167,187.667 414,188.5C 414.822,201.409 414.655,214.242 413.5,227C 411.5,227.667 409.5,227.667 407.5,227C 390.671,219.362 373.005,216.362 354.5,218C 341.538,222.774 340.204,229.774 350.5,239C 365.918,245.806 381.251,252.806 396.5,260C 421.006,274.543 428.506,295.377 419,322.5C 409.484,341.028 394.317,351.861 373.5,355C 353.296,357.707 333.296,356.707 313.5,352C 308.815,350.572 304.315,348.739 300,346.5C 298.369,332.594 298.036,318.594 299,304.5C 299.414,304.043 299.914,303.709 300.5,303.5C 323.086,317.226 347.086,320.726 372.5,314C 378.532,306.858 377.532,300.858 369.5,296C 354.125,289.766 339.125,282.766 324.5,275C 299.813,258.264 293.313,236.097 305,208.5C 315.919,192.126 331.086,182.459 350.5,179.5 Z"/></g>
<g><path style="opacity:1" fill="#18639a" d="M 194.5,280.5 C 183.679,281.495 172.679,281.828 161.5,281.5C 161.831,304.673 161.498,327.673 160.5,350.5C 160.5,327.167 160.5,303.833 160.5,280.5C 171.833,280.5 183.167,280.5 194.5,280.5 Z"/></g>
</svg>
