<?xml version="1.0" encoding="UTF-8"?>
<!DOCTYPE svg PUBLIC "-//W3C//DTD SVG 1.1//EN" "http://www.w3.org/Graphics/SVG/1.1/DTD/svg11.dtd">
<svg xmlns="http://www.w3.org/2000/svg" version="1.1" width="757px" height="453px" style="shape-rendering:geometricPrecision; text-rendering:geometricPrecision; image-rendering:optimizeQuality; fill-rule:evenodd; clip-rule:evenodd" xmlns:xlink="http://www.w3.org/1999/xlink">
<g><path style="opacity:0.975" fill="#fefffe" d="M 110.5,-0.5 C 121.167,-0.5 131.833,-0.5 142.5,-0.5C 186.797,3.63172 210.297,27.9651 213,72.5C 213.333,107.167 213.667,141.833 214,176.5C 214.687,180.58 215.687,184.58 217,188.5C 220.448,195.727 223.614,203.06 226.5,210.5C 225.845,213.659 224.178,216.159 221.5,218C 215.335,222.25 209.002,226.25 202.5,230C 199.5,230.667 196.5,230.667 193.5,230C 184.914,222.017 178.414,212.517 174,201.5C 146.885,231.978 113.385,242.145 73.5,232C 52.0668,224.9 38.5668,210.4 33,188.5C 24.9543,140.084 44.7876,110.25 92.5,99C 118.697,95.5215 144.53,97.3549 170,104.5C 170.667,93.8333 170.667,83.1667 170,72.5C 167.84,50.3395 155.673,38.1728 133.5,36C 106.896,33.7207 81.5626,38.3874 57.5,50C 53.6831,51.0234 50.1831,50.5234 47,48.5C 45.0382,39.842 45.0382,31.1754 47,22.5C 47.7845,20.714 48.9512,19.214 50.5,18C 69.4448,8.1021 89.4448,1.93543 110.5,-0.5 Z M 120.5,127.5 C 137.059,127.778 153.392,129.778 169.5,133.5C 174.936,171.887 158.602,194.387 120.5,201C 84.5313,203.359 70.3646,186.859 78,151.5C 82.3974,140.772 90.2307,133.938 101.5,131C 107.906,129.438 114.24,128.271 120.5,127.5 Z"/></g>
<g><path style="opacity:0.974" fill="#fefffe" d="M 630.5,-0.5 C 639.5,-0.5 648.5,-0.5 657.5,-0.5C 667.816,1.06453 678.15,3.2312 688.5,6C 696.764,7.88083 703.931,11.7142 710,17.5C 712.882,26.3885 713.216,35.3885 711,44.5C 707.817,46.5234 704.317,47.0234 700.5,46C 675.112,33.9626 648.778,31.2959 621.5,38C 603.851,45.9432 599.017,58.7766 607,76.5C 612.871,83.1905 620.038,88.0238 628.5,91C 645.771,96.8682 663.104,102.535 680.5,108C 717.513,122.858 731.013,149.692 721,188.5C 710.793,212.363 692.96,227.196 667.5,233C 636.185,239.356 605.518,237.023 575.5,226C 570.256,223.797 565.422,220.964 561,217.5C 560.333,216.167 559.667,214.833 559,213.5C 558.333,205.5 558.333,197.5 559,189.5C 559.374,188.584 559.874,187.75 560.5,187C 563.167,186.333 565.833,186.333 568.5,187C 596.581,200.343 625.914,204.343 656.5,199C 678.45,192.77 685.95,178.937 679,157.5C 673.02,150.25 665.52,145.083 656.5,142C 639.833,136.667 623.167,131.333 606.5,126C 572.363,113.231 557.53,88.731 562,52.5C 568.449,30.047 582.615,14.547 604.5,6C 613.14,3.17319 621.807,1.00652 630.5,-0.5 Z"/></g>
<g><path style="opacity:0.975" fill="#fefffe" d="M 240.5,5.5 C 252.221,5.11276 263.887,5.61276 275.5,7C 278.734,8.94448 280.9,11.7778 282,15.5C 296.013,70.554 310.18,125.554 324.5,180.5C 337.997,124.511 351.497,68.5112 365,12.5C 367.126,8.18401 370.626,6.01734 375.5,6C 384.167,5.33333 392.833,5.33333 401.5,6C 408.692,5.85651 412.859,9.35651 414,16.5C 426.857,71.9271 440.024,127.26 453.5,182.5C 468.487,126.221 483.32,69.8878 498,13.5C 499.628,8.4317 503.128,5.9317 508.5,6C 518.933,5.04952 529.266,5.38285 539.5,7C 540,7.5 540.5,8 541,8.5C 541.667,12.1667 541.667,15.8333 541,19.5C 521.333,82.5 501.667,145.5 482,208.5C 480.246,214.77 477.912,220.77 475,226.5C 474.097,227.701 472.931,228.535 471.5,229C 459.167,229.667 446.833,229.667 434.5,229C 432.061,228.226 430.227,226.726 429,224.5C 414.868,168.97 401.201,113.304 388,57.5C 376.412,104.774 365.079,152.108 354,199.5C 352.105,208.751 349.438,217.751 346,226.5C 344.581,227.46 343.081,228.293 341.5,229C 329.5,229.667 317.5,229.667 305.5,229C 300.877,226.625 298.043,222.791 297,217.5C 277.333,152.5 257.667,87.5 238,22.5C 236.607,17.9053 236.274,13.2387 237,8.5C 238.145,7.36362 239.312,6.36362 240.5,5.5 Z"/></g>
<g><path style="opacity:0.967" fill="#f1971e" d="M 756.5,299.5 C 756.5,304.5 756.5,309.5 756.5,314.5C 752.745,347.678 740.911,377.678 721,404.5C 715.833,409.667 710.667,414.833 705.5,420C 701.808,422.159 698.308,421.993 695,419.5C 694.333,417.5 694.333,415.5 695,413.5C 704.459,391.458 712.125,368.791 718,345.5C 719.879,337.138 719.879,328.805 718,320.5C 716.062,317.894 713.562,316.061 710.5,315C 696.006,311.759 681.34,310.759 666.5,312C 650.947,312.959 635.447,314.459 620,316.5C 613.539,316.246 611.873,313.246 615,307.5C 629.517,295.828 646.017,288.328 664.5,285C 689.508,280.369 714.508,280.369 739.5,285C 748.857,285.877 754.523,290.71 756.5,299.5 Z"/></g>
<g><path style="opacity:0.978" fill="#f1971e" d="M 398.5,452.5 C 383.833,452.5 369.167,452.5 354.5,452.5C 233.348,446.736 125.015,406.902 29.5,333C 19.2808,324.273 9.28079,315.439 -0.5,306.5C -0.5,304.167 -0.5,301.833 -0.5,299.5C 2.55027,296.647 6.21694,295.813 10.5,297C 168.046,385.481 336.046,414.814 514.5,385C 568.59,375.063 620.923,359.396 671.5,338C 685.941,335.106 691.441,340.606 688,354.5C 674.265,366.229 659.432,376.396 643.5,385C 566.799,425.757 485.132,448.257 398.5,452.5 Z"/></g>
</svg>
